<svg width="24" height="25" viewBox="0 0 24 25" fill="none" xmlns="http://www.w3.org/2000/svg">
<path d="M20.317 4.20263C18.7873 3.49851 17.147 2.97976 15.4319 2.68264C15.4007 2.67691 15.3695 2.69124 15.3534 2.7199C15.1424 3.09631 14.9087 3.58736 14.7451 3.97333C12.9004 3.69628 11.0652 3.69628 9.25832 3.97333C9.09465 3.57878 8.85248 3.09631 8.64057 2.7199C8.62448 2.69219 8.59328 2.67786 8.56205 2.68264C6.84791 2.97881 5.20756 3.49757 3.67694 4.20263C3.66368 4.20836 3.65233 4.21792 3.64479 4.23033C0.533392 8.89345 -0.31895 13.442 0.0991801 17.9341C0.101072 17.956 0.11337 17.9771 0.130398 17.9904C2.18321 19.5028 4.17171 20.4209 6.12328 21.0294C6.15451 21.039 6.18761 21.0275 6.20748 21.0017C6.66913 20.3693 7.08064 19.7025 7.43348 19.0012C7.4543 18.9601 7.43442 18.9114 7.39186 18.8952C6.73913 18.6468 6.1176 18.3439 5.51973 18C5.47244 17.9723 5.46865 17.9044 5.51216 17.872C5.63797 17.7774 5.76382 17.679 5.88395 17.5796C5.90569 17.5615 5.93598 17.5576 5.96153 17.5691C9.88928 19.3681 14.1415 19.3681 18.023 17.5691C18.0485 17.5567 18.0788 17.5605 18.1015 17.5787C18.2216 17.678 18.3475 17.7774 18.4742 17.872C18.5177 17.9044 18.5149 17.9723 18.4676 18C17.8697 18.3506 17.2482 18.6468 16.5945 18.8942C16.552 18.9105 16.533 18.9601 16.5538 19.0012C16.9143 19.7015 17.3258 20.3683 17.7789 21.0008C17.7978 21.0275 17.8319 21.039 17.8631 21.0294C19.8241 20.4209 21.8126 19.5028 23.8654 17.9904C23.8834 17.9771 23.8948 17.957 23.8967 17.935C24.3971 12.7416 23.0585 8.23044 20.3482 4.23128C20.3416 4.21792 20.3303 4.20836 20.317 4.20263ZM8.02002 15.1988C6.8375 15.1988 5.86313 14.1098 5.86313 12.7722C5.86313 11.4347 6.8186 10.3456 8.02002 10.3456C9.23087 10.3456 10.1958 11.4443 10.1769 12.7722C10.1769 14.1098 9.22141 15.1988 8.02002 15.1988ZM15.9947 15.1988C14.8123 15.1988 13.8379 14.1098 13.8379 12.7722C13.8379 11.4347 14.7933 10.3456 15.9947 10.3456C17.2056 10.3456 18.1705 11.4443 18.1516 12.7722C18.1516 14.1098 17.2056 15.1988 15.9947 15.1988Z" fill="#6D82AB"/>
</svg>
