<svg width="24" height="25" viewBox="0 0 24 25" fill="none" xmlns="http://www.w3.org/2000/svg">
<g clip-path="url(#clip0_413_33)">
<path d="M22.2234 0H1.77187C0.792187 0 0 0.775442 0 1.73417V22.3233C0 23.2821 0.792187 24.0622 1.77187 24.0622H22.2234C23.2031 24.0622 24 23.2821 24 22.328V1.73417C24 0.775442 23.2031 0 22.2234 0ZM7.12031 20.5046H3.55781V9.01863H7.12031V20.5046ZM5.33906 7.45364C4.19531 7.45364 3.27188 6.52781 3.27188 5.3858C3.27188 4.24378 4.19531 3.31795 5.33906 3.31795C6.47813 3.31795 7.40156 4.24378 7.40156 5.3858C7.40156 6.52311 6.47813 7.45364 5.33906 7.45364ZM20.4516 20.5046H16.8937V14.9214C16.8937 13.5914 16.8703 11.876 15.0422 11.876C13.1906 11.876 12.9094 13.3282 12.9094 14.8274V20.5046H9.35625V9.01863H12.7687V10.5883H12.8156C13.2891 9.68598 14.4516 8.73195 16.1813 8.73195C19.7859 8.73195 20.4516 11.11 20.4516 14.2023V20.5046V20.5046Z" fill="#6D82AB"/>
</g>
<defs>
<clipPath id="clip0_413_33">
<rect width="24" height="24.0622" fill="white"/>
</clipPath>
</defs>
</svg>
