<svg width="24" height="25" viewBox="0 0 24 25" fill="none" xmlns="http://www.w3.org/2000/svg">
<path d="M5.00004 9.88608C6.91644 14.0708 10.3264 17.3979 14.566 19.2016L15.2456 19.5051C16.8004 20.1997 18.6282 19.672 19.5765 18.2548L20.4646 16.9277C20.7533 16.4962 20.6654 15.9151 20.262 15.5888L17.2502 13.1527C16.8078 12.7949 16.1573 12.8782 15.8189 13.3361L14.8871 14.5966C12.4963 13.4142 10.5553 11.4681 9.37595 9.07112L10.6332 8.13698C11.0899 7.79768 11.173 7.14549 10.8161 6.70196L8.38623 3.68221C8.06088 3.27788 7.48138 3.18969 7.05101 3.479L5.71817 4.37502C4.29582 5.3312 3.77244 7.17882 4.48118 8.74181L4.99926 9.88438L5.00004 9.88608Z" fill="#6D82AB"/>
</svg>
